<?xml version="1.0" encoding="UTF-8" standalone="no"?>
<!DOCTYPE svg PUBLIC "-//W3C//DTD SVG 1.1//EN" "http://www.w3.org/Graphics/SVG/1.1/DTD/svg11.dtd">
<svg version="1.1" xmlns="http://www.w3.org/2000/svg" xmlns:xlink="http://www.w3.org/1999/xlink" preserveAspectRatio="xMidYMid meet" viewBox="-1.0000000000000426 -1 293.88505747126453 52.27586206896552" width="270.21" height="45"><defs><path d="M289.89 18.44L276.95 30.81L280.01 48.28L264.02 40.03L248.04 48.28L251.09 30.81L238.16 18.44L256.03 15.89L264.02 0L272.01 15.89L289.89 18.44ZM133.79 18.44L120.86 30.81L123.91 48.28L107.93 40.03L91.95 48.28L95 30.81L82.07 18.44L99.94 15.89L107.93 0L115.92 15.89L133.79 18.44ZM51.72 18.44L38.79 30.81L41.85 48.28L25.86 40.03L9.88 48.28L12.93 30.81L0 18.44L17.87 15.89L25.86 0L33.85 15.89L51.72 18.44ZM212.07 18.44L199.14 30.81L202.19 48.28L186.21 40.03L170.22 48.28L173.28 30.81L160.34 18.44L178.22 15.89L186.21 0L194.2 15.89L212.07 18.44Z" id="aWFZlAcSj"></path></defs><g><g><use xlink:href="#aWFZlAcSj" opacity="1" fill="#13dff5" fill-opacity="1"></use></g></g></svg>