<?xml version="1.0" encoding="UTF-8" standalone="no"?>
<!DOCTYPE svg PUBLIC "-//W3C//DTD SVG 1.1//EN" "http://www.w3.org/Graphics/SVG/1.1/DTD/svg11.dtd">
<svg version="1.1" xmlns="http://www.w3.org/2000/svg" xmlns:xlink="http://www.w3.org/1999/xlink" preserveAspectRatio="xMidYMid meet" viewBox="-1.0000000000005116 -1 644.0000000000005 115.48272656755822" width="1400" height="243.87"><defs><path d="M639.51 88.16L639.24 89.35L638.92 90.53L638.54 91.69L638.11 92.82L637.62 93.94L637.08 95.03L636.5 96.09L635.86 97.13L635.18 98.15L634.45 99.14L633.68 100.09L632.87 101.02L632.01 101.92L631.11 102.78L630.18 103.61L629.2 104.4L628.19 105.16L627.14 105.89L626.06 106.57L624.95 107.21L623.8 107.82L622.63 108.38L621.43 108.9L620.19 109.37L618.94 109.8L617.65 110.19L616.35 110.52L615.02 110.81L613.67 111.05L612.3 111.24L610.91 111.37L609.51 111.46L608.09 111.48L606.67 111.46L605.26 111.37L603.87 111.24L602.51 111.05L601.16 110.81L599.83 110.52L598.52 110.19L597.24 109.8L595.98 109.37L594.75 108.9L593.55 108.38L592.37 107.82L591.23 107.21L590.11 106.57L589.03 105.89L587.99 105.16L586.97 104.4L586 103.61L585.06 102.78L584.17 101.92L583.31 101.02L582.49 100.09L581.72 99.14L580.99 98.15L580.31 97.13L579.68 96.09L579.09 95.03L578.56 93.94L578.07 92.82L577.64 91.69L577.26 90.53L576.93 89.35L576.66 88.16L576.65 88.1L575.7 88.1L575.69 88.16L575.42 89.35L575.09 90.53L574.71 91.69L574.28 92.82L573.8 93.94L573.26 95.03L572.67 96.09L572.04 97.13L571.36 98.15L570.63 99.14L569.86 100.09L569.04 101.02L568.19 101.92L567.29 102.78L566.35 103.61L565.38 104.4L564.37 105.16L563.32 105.89L562.24 106.57L561.12 107.21L559.98 107.82L558.8 108.38L557.6 108.9L556.37 109.37L555.11 109.8L553.83 110.19L552.52 110.52L551.2 110.81L549.85 111.05L548.48 111.24L547.09 111.37L545.68 111.46L544.26 111.48L542.84 111.46L541.44 111.37L540.05 111.24L538.68 111.05L537.33 110.81L536 110.52L534.7 110.19L533.41 109.8L532.16 109.37L530.93 108.9L529.72 108.38L528.55 107.82L527.4 107.21L526.29 106.57L525.21 105.89L524.16 105.16L523.15 104.4L522.18 103.61L521.24 102.78L520.34 101.92L519.48 101.02L518.67 100.09L517.9 99.14L517.17 98.15L516.49 97.13L515.85 96.09L515.27 95.03L514.73 93.94L514.25 92.82L513.81 91.69L513.43 90.53L513.11 89.35L512.84 88.16L512.83 88.1L511.87 88.1L511.86 88.16L511.59 89.35L511.27 90.53L510.89 91.69L510.46 92.82L509.97 93.94L509.43 95.03L508.85 96.09L508.21 97.13L507.53 98.15L506.8 99.14L506.03 100.09L505.22 101.02L504.36 101.92L503.46 102.78L502.53 103.61L501.55 104.4L500.54 105.16L499.49 105.89L498.41 106.57L497.3 107.21L496.16 107.82L494.98 108.38L493.78 108.9L492.55 109.37L491.29 109.8L490.01 110.19L488.7 110.52L487.37 110.81L486.02 111.05L484.65 111.24L483.26 111.37L481.86 111.46L480.44 111.48L479.02 111.46L477.61 111.37L476.23 111.24L474.86 111.05L473.51 110.81L472.18 110.52L470.87 110.19L469.59 109.8L468.33 109.37L467.1 108.9L465.9 108.38L464.72 107.82L463.58 107.21L462.46 106.57L461.38 105.89L460.34 105.16L459.33 104.4L458.35 103.61L457.41 102.78L456.52 101.92L455.66 101.02L454.85 100.09L454.07 99.14L453.35 98.15L452.66 97.13L452.03 96.09L451.44 95.03L450.91 93.94L450.42 92.82L449.99 91.69L449.61 90.53L449.28 89.35L449.01 88.16L449 88.1L446.72 88.1L446.71 88.16L446.44 89.35L446.11 90.53L445.73 91.69L445.3 92.82L444.82 93.94L444.28 95.03L443.69 96.09L443.06 97.13L442.38 98.15L441.65 99.14L440.88 100.09L440.06 101.02L439.2 101.92L438.31 102.78L437.37 103.61L436.4 104.4L435.38 105.16L434.34 105.89L433.26 106.57L432.14 107.21L431 107.82L429.82 108.38L428.62 108.9L427.39 109.37L426.13 109.8L424.85 110.19L423.54 110.52L422.21 110.81L420.87 111.05L419.5 111.24L418.11 111.37L416.7 111.46L415.28 111.48L413.86 111.46L412.46 111.37L411.07 111.24L409.7 111.05L408.35 110.81L407.02 110.52L405.72 110.19L404.43 109.8L403.18 109.37L401.95 108.9L400.74 108.38L399.57 107.82L398.42 107.21L397.31 106.57L396.23 105.89L395.18 105.16L394.17 104.4L393.2 103.61L392.26 102.78L391.36 101.92L390.5 101.02L389.69 100.09L388.92 99.14L388.19 98.15L387.51 97.13L386.87 96.09L386.29 95.03L385.75 93.94L385.27 92.82L384.83 91.69L384.45 90.53L384.13 89.35L383.86 88.16L383.85 88.1L382.89 88.1L382.88 88.16L382.61 89.35L382.29 90.53L381.91 91.69L381.48 92.82L380.99 93.94L380.45 95.03L379.87 96.09L379.23 97.13L378.55 98.15L377.82 99.14L377.05 100.09L376.24 101.02L375.38 101.92L374.48 102.78L373.55 103.61L372.57 104.4L371.56 105.16L370.51 105.89L369.43 106.57L368.32 107.21L367.18 107.82L366 108.38L364.8 108.9L363.56 109.37L362.31 109.8L361.02 110.19L359.72 110.52L358.39 110.81L357.04 111.05L355.67 111.24L354.28 111.37L352.88 111.46L351.46 111.48L350.04 111.46L348.63 111.37L347.25 111.24L345.88 111.05L344.53 110.81L343.2 110.52L341.89 110.19L340.61 109.8L339.35 109.37L338.12 108.9L336.92 108.38L335.74 107.82L334.6 107.21L333.48 106.57L332.4 105.89L331.36 105.16L330.35 104.4L329.37 103.61L328.43 102.78L327.54 101.92L326.68 101.02L325.86 100.09L325.09 99.14L324.37 98.15L323.68 97.13L323.05 96.09L322.46 95.03L321.93 93.94L321.44 92.82L321.01 91.69L320.63 90.53L320.3 89.35L320.03 88.16L320.02 88.1L317.98 88.1L317.97 88.16L317.7 89.35L317.38 90.53L317 91.69L316.57 92.82L316.08 93.94L315.54 95.03L314.96 96.09L314.32 97.13L313.64 98.15L312.91 99.14L312.14 100.09L311.33 101.02L310.47 101.92L309.57 102.78L308.64 103.61L307.66 104.4L306.65 105.16L305.6 105.89L304.52 106.57L303.41 107.21L302.27 107.82L301.09 108.38L299.89 108.9L298.65 109.37L297.4 109.8L296.11 110.19L294.81 110.52L293.48 110.81L292.13 111.05L290.76 111.24L289.37 111.37L287.97 111.46L286.55 111.48L285.13 111.46L283.72 111.37L282.34 111.24L280.97 111.05L279.62 110.81L278.29 110.52L276.98 110.19L275.7 109.8L274.44 109.37L273.21 108.9L272.01 108.38L270.83 107.82L269.69 107.21L268.57 106.57L267.49 105.89L266.45 105.16L265.44 104.4L264.46 103.61L263.52 102.78L262.63 101.92L261.77 101.02L260.95 100.09L260.18 99.14L259.46 98.15L258.77 97.13L258.14 96.09L257.55 95.03L257.02 93.94L256.53 92.82L256.1 91.69L255.72 90.53L255.39 89.35L255.12 88.16L255.11 88.1L254.82 88.1L254.81 88.16L254.54 89.35L254.22 90.53L253.84 91.69L253.4 92.82L252.92 93.94L252.38 95.03L251.79 96.09L251.16 97.13L250.48 98.15L249.75 99.14L248.98 100.09L248.16 101.02L247.31 101.92L246.41 102.78L245.47 103.61L244.5 104.4L243.49 105.16L242.44 105.89L241.36 106.57L240.25 107.21L239.1 107.82L237.93 108.38L236.72 108.9L235.49 109.37L234.23 109.8L232.95 110.19L231.65 110.52L230.32 110.81L228.97 111.05L227.6 111.24L226.21 111.37L224.81 111.46L223.39 111.48L221.96 111.46L220.56 111.37L219.17 111.24L217.8 111.05L216.45 110.81L215.13 110.52L213.82 110.19L212.54 109.8L211.28 109.37L210.05 108.9L208.84 108.38L207.67 107.82L206.52 107.21L205.41 106.57L204.33 105.89L203.28 105.16L202.27 104.4L201.3 103.61L200.36 102.78L199.46 101.92L198.61 101.02L197.79 100.09L197.02 99.14L196.29 98.15L195.61 97.13L194.98 96.09L194.39 95.03L193.85 93.94L193.37 92.82L192.93 91.69L192.55 90.53L192.23 89.35L191.96 88.16L191.95 88.1L191 88.1L190.99 88.16L190.72 89.35L190.39 90.53L190.01 91.69L189.58 92.82L189.09 93.94L188.56 95.03L187.97 96.09L187.34 97.13L186.65 98.15L185.93 99.14L185.15 100.09L184.34 101.02L183.48 101.92L182.59 102.78L181.65 103.61L180.67 104.4L179.66 105.16L178.62 105.89L177.54 106.57L176.42 107.21L175.28 107.82L174.1 108.38L172.9 108.9L171.67 109.37L170.41 109.8L169.13 110.19L167.82 110.52L166.49 110.81L165.14 111.05L163.77 111.24L162.39 111.37L160.98 111.46L159.56 111.48L158.14 111.46L156.74 111.37L155.35 111.24L153.98 111.05L152.63 110.81L151.3 110.52L149.99 110.19L148.71 109.8L147.45 109.37L146.22 108.9L145.02 108.38L143.84 107.82L142.7 107.21L141.59 106.57L140.51 105.89L139.46 105.16L138.45 104.4L137.47 103.61L136.54 102.78L135.64 101.92L134.78 101.02L133.97 100.09L133.2 99.14L132.47 98.15L131.79 97.13L131.15 96.09L130.57 95.03L130.03 93.94L129.54 92.82L129.11 91.69L128.73 90.53L128.41 89.35L128.14 88.16L128.13 88.1L127.17 88.1L127.16 88.16L126.89 89.35L126.57 90.53L126.19 91.69L125.75 92.82L125.27 93.94L124.73 95.03L124.15 96.09L123.51 97.13L122.83 98.15L122.1 99.14L121.33 100.09L120.52 101.02L119.66 101.92L118.76 102.78L117.82 103.61L116.85 104.4L115.84 105.16L114.79 105.89L113.71 106.57L112.6 107.21L111.45 107.82L110.28 108.38L109.07 108.9L107.84 109.37L106.59 109.8L105.3 110.19L104 110.52L102.67 110.81L101.32 111.05L99.95 111.24L98.56 111.37L97.16 111.46L95.74 111.48L94.32 111.46L92.91 111.37L91.52 111.24L90.15 111.05L88.8 110.81L87.48 110.52L86.17 110.19L84.89 109.8L83.63 109.37L82.4 108.9L81.2 108.38L80.02 107.82L78.88 107.21L77.76 106.57L76.68 105.89L75.63 105.16L74.62 104.4L73.65 103.61L72.71 102.78L71.81 101.92L70.96 101.02L70.14 100.09L69.37 99.14L68.64 98.15L67.96 97.13L67.33 96.09L66.74 95.03L66.2 93.94L65.72 92.82L65.29 91.69L64.91 90.53L64.58 89.35L64.31 88.16L64.3 88.1L63.35 88.1L63.34 88.16L63.07 89.35L62.74 90.53L62.36 91.69L61.93 92.82L61.44 93.94L60.91 95.03L60.32 96.09L59.69 97.13L59.01 98.15L58.28 99.14L57.51 100.09L56.69 101.02L55.83 101.92L54.94 102.78L54 103.61L53.03 104.4L52.01 105.16L50.97 105.89L49.89 106.57L48.77 107.21L47.63 107.82L46.45 108.38L45.25 108.9L44.02 109.37L42.76 109.8L41.48 110.19L40.17 110.52L38.84 110.81L37.49 111.05L36.13 111.24L34.74 111.37L33.33 111.46L31.91 111.48L30.49 111.46L29.09 111.37L27.7 111.24L26.33 111.05L24.98 110.81L23.65 110.52L22.35 110.19L21.06 109.8L19.81 109.37L18.57 108.9L17.37 108.38L16.2 107.82L15.05 107.21L13.94 106.57L12.86 105.89L11.81 105.16L10.8 104.4L9.82 103.61L8.89 102.78L7.99 101.92L7.13 101.02L6.32 100.09L5.55 99.14L4.82 98.15L4.14 97.13L3.5 96.09L2.92 95.03L2.38 93.94L1.89 92.82L1.46 91.69L1.08 90.53L0.76 89.35L0.49 88.16L0.48 88.1L0 88.1L0 0L640 0L640 88.1L639.52 88.1L639.51 88.16Z" id="a1DL7oeTdt"></path></defs><g><g><use xlink:href="#a1DL7oeTdt" opacity="1" fill="#ff5536" fill-opacity="1"></use></g></g></svg>